<svg xmlns="http://www.w3.org/2000/svg" viewBox="0 0 1024 1024" role="img" aria-label="JournalScout logo">
  <defs>
    <linearGradient id="panel" x1="0" y1="0" x2="1" y2="1">
      <stop offset="0%" stop-color="#f3f5f6"/>
      <stop offset="100%" stop-color="#e7eaeb"/>
    </linearGradient>
    <linearGradient id="blue" x1="0" y1="0" x2="1" y2="1">
      <stop offset="0%" stop-color="#0e2f5f"/>
      <stop offset="100%" stop-color="#163f78"/>
    </linearGradient>
    <linearGradient id="dark" x1="0" y1="0" x2="1" y2="1">
      <stop offset="0%" stop-color="#454c57"/>
      <stop offset="100%" stop-color="#646d77"/>
    </linearGradient>
    <filter id="softShadow" x="-20%" y="-20%" width="140%" height="140%">
      <feDropShadow dx="0" dy="8" stdDeviation="12" flood-color="#c5cdd6" flood-opacity="0.4"/>
    </filter>
  </defs>

  <rect width="1024" height="1024" fill="none"/>
  <g filter="url(#softShadow)">
    <rect x="170" y="255" width="118" height="515" fill="#dfe4e5"/>
    <rect x="305" y="145" width="530" height="715" fill="url(#panel)"/>
  </g>

  <g>
    <path d="M571 312c27-25 79-25 106-2h42c18 0 26 18 20 34-5 14-18 22-33 22H516c-21 0-32-24-18-40 17-19 48-26 73-14z" fill="url(#blue)"/>
    <rect x="470" y="395" width="395" height="32" fill="url(#blue)"/>

    <polygon points="458,765 625,500 735,500 583,765" fill="url(#dark)"/>
    <polygon points="581,765 735,500 847,500 908,765" fill="url(#blue)"/>
    <polygon points="583,765 642,500 742,500 675,665" fill="url(#blue)"/>
  </g>
</svg>
